# xmcd CD database file
#
# Track frame offsets:
#	182
#	14117
#	32085
#	56662
#	72050
#	86705
#	101447
#	113697
#	128707
#	142397
#	161897
#	181255
#	199335
#	218800
#	238260
#
# Disc length: 3347 seconds
#
# Revision: 1
# Processed by: cddbd v1.5.2PL0 Copyright (c) Steve Scherf et al.
# Submitted via: CDex 1.70beta2
#
DISCID=e20d110f
DTITLE=Various Artist - Good Noise
DYEAR=1995
DGENRE=Country
TTITLE0=Good Noise
TTITLE1=Elvira
TTITLE2=Any Way The Wind Blows
TTITLE3=One Step Forward
TTITLE4=Je Suis Contendre
TTITLE5=Tempted
TTITLE6=Haunted Heart
TTITLE7=Land of Enchantment
TTITLE8=There Goes my Heart
TTITLE9=Gone Country
TTITLE10=All You ever do is bring me down
TTITLE11=Cajun Moon
TTITLE12=The Boys and Me
TTITLE13=Poor Boy Blues
TTITLE14=Bring it on down to my House
EXTD=YEAR: 1995
EXTT0=
EXTT1=
EXTT2=
EXTT3=
EXTT4=
EXTT5=
EXTT6=
EXTT7=
EXTT8=
EXTT9=
EXTT10=
EXTT11=
EXTT12=
EXTT13=
EXTT14=
PLAYORDER=
